<svg width="777" height="577" viewBox="0 0 777 577" fill="none" xmlns="http://www.w3.org/2000/svg">
<path d="M581.437 577C573.141 577 565.492 574.871 558.49 570.614C551.564 566.357 546.008 560.694 541.822 553.624C537.712 546.478 535.657 538.648 535.657 530.134V519.415C535.657 518.578 536.038 518.16 536.799 518.16H563.056C563.665 518.16 563.97 518.578 563.97 519.415V530.134C563.97 535.227 565.682 539.636 569.107 543.361C572.532 547.01 576.642 548.834 581.437 548.834C586.308 548.834 590.455 546.972 593.88 543.247C597.305 539.446 599.018 535.075 599.018 530.134C599.018 524.432 595.288 519.453 587.83 515.196C586.612 514.435 585.014 513.523 583.035 512.459C581.132 511.319 578.849 510.026 576.185 508.582C573.521 507.137 570.934 505.731 568.422 504.363C565.91 502.918 563.475 501.55 561.116 500.258C552.591 495.24 546.236 488.969 542.05 481.443C537.94 473.841 535.886 465.326 535.886 455.9C535.886 447.234 538.017 439.404 542.279 432.41C546.541 425.492 552.097 420.018 558.946 415.989C565.872 411.884 573.369 409.832 581.437 409.832C589.732 409.832 597.343 411.884 604.269 415.989C611.195 420.17 616.713 425.72 620.823 432.638C625.009 439.556 627.102 447.31 627.102 455.9V475.057C627.102 475.665 626.797 475.969 626.188 475.969H599.931C599.322 475.969 599.018 475.665 599.018 475.057L598.789 455.9C598.789 450.426 597.077 445.979 593.652 442.558C590.227 439.137 586.155 437.427 581.437 437.427C576.642 437.427 572.532 439.252 569.107 442.9C565.682 446.549 563.97 450.883 563.97 455.9C563.97 460.993 565.035 465.25 567.166 468.671C569.373 472.092 573.369 475.361 579.153 478.478C579.762 478.782 581.17 479.542 583.377 480.758C585.585 481.975 588.02 483.343 590.684 484.864C593.424 486.308 595.897 487.638 598.104 488.855C600.312 489.995 601.643 490.679 602.1 490.907C609.863 495.24 615.99 500.562 620.48 506.871C625.047 513.181 627.33 520.935 627.33 530.134C627.33 539.028 625.275 547.01 621.165 554.08C616.979 561.15 611.423 566.737 604.498 570.842C597.572 574.947 589.885 577 581.437 577Z" fill="white"/>
<path d="M458.817 573.405H432.316C431.706 573.405 431.402 573.031 431.402 572.282L431.859 414.325C431.859 413.726 432.163 413.427 432.773 413.427H480.064C488.517 413.427 496.285 415.448 503.367 419.489C510.449 423.531 516.084 428.957 520.273 435.768C524.537 442.578 526.67 450.287 526.67 458.894C526.67 464.508 525.794 469.597 524.042 474.162C522.291 478.728 520.235 482.582 517.874 485.726C515.589 488.869 513.495 491.189 511.591 492.686C520.044 501.892 524.271 512.707 524.271 525.131L524.499 572.282C524.499 573.031 524.119 573.405 523.357 573.405H496.856C496.246 573.405 495.942 573.18 495.942 572.731V525.131C495.942 519.592 493.962 514.802 490.002 510.761C486.042 506.719 481.168 504.699 475.38 504.699H459.959L459.731 572.282C459.731 573.031 459.426 573.405 458.817 573.405ZM480.064 440.932H459.959V477.081H480.064C484.862 477.081 489.126 475.322 492.858 471.805C496.665 468.287 498.569 463.984 498.569 458.894C498.569 454.029 496.741 449.838 493.086 446.321C489.431 442.728 485.09 440.932 480.064 440.932Z" fill="white"/>
<path d="M366.75 577C358.312 577 350.533 574.874 343.411 570.623C336.367 566.372 330.677 560.716 326.343 553.656C322.085 546.519 319.956 538.7 319.956 530.197L320.189 456.293C320.189 447.638 322.317 439.857 326.575 432.948C330.755 425.964 336.406 420.384 343.527 416.209C350.649 411.957 358.39 409.832 366.75 409.832C375.419 409.832 383.199 411.919 390.088 416.095C397.055 420.27 402.628 425.888 406.808 432.948C411.066 439.933 413.195 447.714 413.195 456.293L413.427 530.197C413.427 538.7 411.337 546.481 407.157 553.542C402.899 560.678 397.249 566.372 390.204 570.623C383.16 574.874 375.342 577 366.75 577ZM366.75 548.873C371.549 548.873 375.729 546.975 379.29 543.179C382.851 539.307 384.631 534.98 384.631 530.197L384.399 456.293C384.399 451.13 382.734 446.765 379.406 443.197C376.077 439.629 371.859 437.845 366.75 437.845C361.873 437.845 357.693 439.591 354.21 443.083C350.726 446.575 348.984 450.978 348.984 456.293V530.197C348.984 535.284 350.726 539.687 354.21 543.407C357.693 547.051 361.873 548.873 366.75 548.873Z" fill="white"/>
<path d="M308.035 573.405H232.788C232.182 573.405 231.879 573.031 231.879 572.282L232.106 414.549C232.106 413.801 232.485 413.427 233.243 413.427H259.158C259.916 413.427 260.295 413.801 260.295 414.549L260.068 545.114H308.035C308.792 545.114 309.171 545.488 309.171 546.237V572.282C309.171 573.031 308.792 573.405 308.035 573.405Z" fill="white"/>
<path d="M167.226 577C158.789 577 151.009 574.874 143.888 570.623C136.844 566.372 131.154 560.716 126.819 553.656C122.562 546.519 120.433 538.7 120.433 530.197L120.665 456.293C120.665 447.638 122.794 439.857 127.051 432.948C131.231 425.964 136.882 420.384 144.004 416.209C151.125 411.957 158.866 409.832 167.226 409.832C175.896 409.832 183.675 411.919 190.565 416.095C197.532 420.27 203.105 425.888 207.285 432.948C211.542 439.933 213.671 447.714 213.671 456.293L213.903 530.197C213.903 538.7 211.813 546.481 207.633 553.542C203.376 560.678 197.725 566.372 190.681 570.623C183.637 574.874 175.819 577 167.226 577ZM167.226 548.873C172.026 548.873 176.206 546.975 179.766 543.179C183.327 539.307 185.108 534.98 185.108 530.197L184.875 456.293C184.875 451.13 183.211 446.765 179.882 443.197C176.554 439.629 172.335 437.845 167.226 437.845C162.35 437.845 158.169 439.591 154.686 443.083C151.203 446.575 149.461 450.978 149.461 456.293V530.197C149.461 535.284 151.203 539.687 154.686 543.407C158.169 547.051 162.35 548.873 167.226 548.873Z" fill="white"/>
<path d="M61.957 577C53.5089 577 45.7839 574.874 38.7819 570.623C31.856 566.372 26.3381 560.678 22.2283 553.542C18.1945 546.33 16.1776 538.32 16.1776 529.514L16.4059 456.748C16.4059 448.094 18.3848 440.274 22.3424 433.29C26.3001 426.23 31.7418 420.574 38.6677 416.323C45.6697 411.995 53.4328 409.832 61.957 409.832C70.6334 409.832 78.3584 411.919 85.1321 416.095C91.9818 420.27 97.4236 425.926 101.457 433.062C105.567 440.122 107.622 448.018 107.622 456.748V467.452C107.622 468.06 107.318 468.363 106.709 468.363H80.4514C79.8425 468.363 79.5381 468.06 79.5381 467.452V456.748C79.5381 451.586 77.8637 447.145 74.5149 443.425C71.1661 439.705 66.9802 437.845 61.957 437.845C56.401 437.845 52.139 439.743 49.1707 443.539C46.2025 447.334 44.7184 451.738 44.7184 456.748V529.514C44.7184 535.208 46.3928 539.877 49.7415 543.521C53.0903 547.089 57.1621 548.873 61.957 548.873C66.9802 548.873 71.1661 546.899 74.5149 542.951C77.8637 538.928 79.5381 534.449 79.5381 529.514V518.696C79.5381 518.089 79.8425 517.785 80.4514 517.785H106.937C107.546 517.785 107.851 518.089 107.851 518.696V529.514C107.851 538.245 105.796 546.216 101.686 553.428C97.4997 560.564 91.9818 566.296 85.1321 570.623C78.2823 574.874 70.5573 577 61.957 577Z" fill="white"/>
<path d="M563.756 374.675C547.518 374.675 532.671 370.579 519.213 362.387C505.901 354.196 495.296 343.225 487.397 329.474C479.644 315.577 475.767 300.145 475.767 283.176L476.206 142.965C476.206 126.289 480.009 111.222 487.616 97.7641C495.223 84.1599 505.682 73.2619 518.994 65.0701C532.451 56.7321 547.372 52.563 563.756 52.563C580.432 52.563 595.279 56.5858 608.298 64.6313C621.464 72.6768 631.923 83.5747 639.676 97.3252C647.575 110.929 651.525 126.143 651.525 142.965V163.591C651.525 164.761 650.939 165.346 649.769 165.346H599.302C598.132 165.346 597.547 164.761 597.547 163.591V142.965C597.547 133.018 594.329 124.46 587.892 117.293C581.456 110.125 573.41 106.541 563.756 106.541C553.077 106.541 544.885 110.198 539.18 117.512C533.475 124.826 530.623 133.31 530.623 142.965V283.176C530.623 294.147 533.841 303.143 540.278 310.165C546.714 317.04 554.54 320.478 563.756 320.478C573.41 320.478 581.456 316.674 587.892 309.068C594.329 301.315 597.547 292.684 597.547 283.176V262.331C597.547 261.161 598.132 260.575 599.302 260.575H650.208C651.378 260.575 651.963 261.161 651.963 262.331V283.176C651.963 299.998 648.014 315.358 640.115 329.255C632.069 343.005 621.464 354.049 608.298 362.387C595.133 370.579 580.286 374.675 563.756 374.675Z" fill="white"/>
<path d="M439.782 370.287H388.876C387.413 370.287 386.682 369.555 386.682 368.092L387.121 59.3652C387.121 58.1949 387.706 57.6098 388.876 57.6098H439.343C440.513 57.6098 441.099 58.1949 441.099 59.3652L441.318 213.729L441.537 368.092C441.537 369.555 440.952 370.287 439.782 370.287Z" fill="white"/>
<path d="M233.964 370.287H183.497C182.034 370.287 181.302 369.555 181.302 368.092L182.18 59.3652C182.18 58.1949 182.765 57.6098 183.936 57.6098H270.388C297.889 57.6098 319.612 66.021 335.556 82.8434C351.647 99.5195 359.693 122.266 359.693 151.084C359.693 172.148 355.524 190.507 347.186 206.159C338.701 221.665 327.73 233.66 314.272 242.144C300.815 250.628 286.186 254.87 270.388 254.87H236.158V368.092C236.158 369.555 235.427 370.287 233.964 370.287ZM270.388 110.929L236.158 111.368V200.454H270.388C279.896 200.454 288.161 195.919 295.183 186.85C302.204 177.634 305.715 165.712 305.715 151.084C305.715 139.381 302.57 129.8 296.28 122.339C289.99 114.733 281.359 110.929 270.388 110.929Z" fill="white"/>
<path d="M165.196 370.287H1.97249C0.657495 370.287 0 369.42 0 367.688L0.493122 2.0788C0.493122 0.692934 1.15062 0 2.46561 0H164.703C166.018 0 166.675 0.866168 166.675 2.5985V62.1042C166.675 63.4901 166.018 64.183 164.703 64.183H61.1471V147.335H164.703C166.018 147.335 166.675 148.028 166.675 149.414L167.168 209.699C167.168 211.085 166.511 211.778 165.196 211.778H61.1471V304.804H165.196C166.511 304.804 167.168 305.671 167.168 307.403V368.208C167.168 369.594 166.511 370.287 165.196 370.287Z" fill="white"/>
<path d="M729.375 426.414L680.808 422.73C678.727 422.572 677.658 421.327 677.603 418.995L675.088 254.355L689.754 60.9918C689.93 58.6774 690.943 57.5904 692.793 57.7308L772.582 63.7828C774.894 63.9582 775.963 65.2031 775.788 67.5174L760.427 260.828L733.108 423.205C732.701 425.502 731.457 426.572 729.375 426.414ZM735.059 558.474L655.27 552.422C653.42 552.282 652.583 551.054 652.759 548.74L658.63 471.325C658.788 469.242 659.793 468.271 661.643 468.411L741.432 474.463C743.282 474.604 744.128 475.715 743.97 477.798L738.098 555.213C737.922 557.527 736.91 558.614 735.059 558.474Z" fill="white"/>
</svg>
